PathFileType	4	(X/Y/Z)	C:/Users/opensim2020/Desktop/walking_exp_matlab/subject01_walking13_straight_01.trc	
DataRate	CameraRate	NumFrames	NumMarkers	Units	OrigDataRate	OrigDataStartFrame	OrigNumFrames	
100.00	100.00	5	42	mm	100.00	690	142	
Frame#	Time	LFHD			RFHD			LBHD			RBHD			C7			T10			CLAV			STRN			RBAK			LSHO			LUPA			LELB			LFRM			LWRA			LWRB			LFIN			RSHO			RUPA			RELB			RFRM			RWRA			RWRB			RFIN			LASI			RASI			LPSI			RPSI			LTHI			LKNE			LTIB			LANK			LHEE			LTOE			RTHI			RKNE			RTIB			RANK			RHEE			RTOE			*39			*40			*41			
		X1	Y1	Z1	X2	Y2	Z2	X3	Y3	Z3	X4	Y4	Z4	X5	Y5	Z5	X6	Y6	Z6	X7	Y7	Z7	X8	Y8	Z8	X9	Y9	Z9	X10	Y10	Z10	X11	Y11	Z11	X12	Y12	Z12	X13	Y13	Z13	X14	Y14	Z14	X15	Y15	Z15	X16	Y16	Z16	X17	Y17	Z17	X18	Y18	Z18	X19	Y19	Z19	X20	Y20	Z20	X21	Y21	Z21	X22	Y22	Z22	X23	Y23	Z23	X24	Y24	Z24	X25	Y25	Z25	X26	Y26	Z26	X27	Y27	Z27	X28	Y28	Z28	X29	Y29	Z29	X30	Y30	Z30	X31	Y31	Z31	X32	Y32	Z32	X33	Y33	Z33	X34	Y34	Z34	X35	Y35	Z35	X36	Y36	Z36	X37	Y37	Z37	X38	Y38	Z38	X39	Y39	Z39	X40	Y40	Z40	X41	Y41	Z41	X42	Y42	Z42	

89	0.880	-1103.80383	475.46741	1658.50171	-989.42407	484.56641	1662.44055	-1100.91577	354.33200	1630.09302	-979.86987	361.04752	1633.54260	-1056.61499	289.77393	1433.45142	-1038.72766	253.64519	1137.70142	-1049.44409	431.73611	1362.13879	-1049.65845	474.88678	1209.09497	-973.71509	230.23537	1239.27869	-1211.84167	373.19028	1386.49255	-1296.15430	347.41953	1203.64746	-1298.26367	334.59998	1050.68872	-1311.68286	388.75128	946.85205	-1278.37268	479.97324	845.77521	-1306.88245	429.38303	832.06531	-1313.45715	486.31348	772.06378	-900.83984	363.77853	1396.39221	-794.43201	296.29218	1203.88367	-786.52173	295.60843	1075.43103	-769.62000	354.78470	963.88483	-806.82587	462.96249	879.93347	-766.72028	425.31482	863.17200	-774.91193	486.01691	804.50128	-1140.90491	434.73569	933.86945	-923.55011	426.04825	931.48944	-1095.10925	246.58313	944.84637	-949.73499	243.90840	943.40155	-1187.21448	432.77292	601.00226	-1164.39221	438.00647	467.31122	-1171.66296	378.86154	286.41245	-1121.04956	328.19116	74.76778	-1072.34180	276.78671	48.85618	-1117.56140	473.59427	36.30303	-856.15454	433.35138	600.41864	-871.49738	463.00967	445.45868	-872.19092	315.96072	350.45633	-922.87537	159.64053	218.37041	-979.19720	104.70231	226.41208	-919.18835	210.63383	82.50835	-1013.56635	478.42770	1697.26172	-3102.01270	1972.95630	1023.72125	-3140.67358	2012.51758	1022.08612 
90	0.890	-1102.71558	488.94922	1659.15405	-988.26038	497.71298	1662.66113	-1100.34241	367.60565	1631.54553	-979.19092	373.98792	1634.56592	-1056.81885	301.87234	1434.53027	-1039.18811	265.42014	1138.78015	-1049.29126	443.69382	1363.20349	-1049.56860	486.78458	1210.17554	-974.01624	241.87025	1240.44128	-1211.84937	385.56171	1388.00049	-1296.63098	362.14035	1205.18787	-1299.79126	352.29865	1051.97363	-1312.74182	409.73132	949.66821	-1278.48218	503.92322	851.66394	-1307.53198	454.09149	836.32129	-1313.88794	513.05969	778.41754	-900.81305	375.41156	1397.32727	-794.73352	307.06421	1205.01392	-786.98578	305.57181	1076.55603	-769.09674	361.40451	963.58282	-805.09045	467.50192	876.28564	-765.15076	429.08054	860.92139	-772.65277	488.12448	800.39240	-1141.53503	446.42743	935.13873	-924.38330	438.33768	933.14130	-1094.30542	258.07373	946.13123	-948.94159	256.48776	944.64801	-1187.13489	438.81464	601.23779	-1165.02405	441.02283	467.12631	-1171.82715	380.00409	286.69455	-1121.05029	328.56625	75.49797	-1072.22449	276.95981	49.91483	-1117.57190	473.50153	36.24035	-856.25110	452.82846	603.97058	-871.87640	486.35266	449.78543	-872.90137	342.24899	350.11005	-923.84015	192.04947	210.96704	-979.98871	135.41785	215.29271	-919.26379	251.85275	79.80250	-1012.26257	491.94742	1697.59912	-3101.99854	1973.06580	1023.52362	-3140.67456	2012.57263	1022.09412 
91	0.900	-1101.53418	502.38519	1659.62805	-987.07440	510.94073	1662.78821	-1099.67310	380.87070	1632.91907	-978.36127	386.93069	1635.57581	-1056.78149	313.93402	1435.58960	-1039.41699	277.14706	1139.81714	-1049.02625	455.60504	1364.10071	-1049.36792	498.57562	1211.06128	-974.28619	253.58195	1241.40234	-1211.60303	397.87225	1389.30017	-1297.06836	376.64633	1206.62732	-1301.10901	369.84137	1053.18494	-1313.50391	430.89157	952.68372	-1278.76135	528.01184	858.05261	-1308.04370	478.88391	840.84271	-1314.20178	539.89105	785.26971	-900.73346	386.92944	1398.03906	-794.98901	317.69809	1205.93481	-787.47461	315.43149	1077.54272	-768.53802	368.33643	963.50360	-803.38367	471.93246	872.72711	-763.42743	432.85654	858.87103	-770.32422	490.19968	796.54486	-1142.26294	457.10083	935.66638	-925.11334	450.48795	934.70538	-1093.47327	269.49640	947.35669	-948.09979	268.56720	946.16589	-1186.96216	444.73477	601.34448	-1165.69702	443.86179	466.98279	-1171.85400	381.31757	287.01541	-1120.94055	328.99667	76.47990	-1071.95422	277.19629	50.98640	-1117.55383	473.61108	36.17136	-856.40704	472.01190	607.51111	-872.41571	508.83392	454.14407	-873.61340	368.39658	349.03525	-924.79663	224.63785	202.85001	-980.54712	167.42999	202.92435	-918.81146	294.05753	77.09952	-1010.93573	505.51007	1697.82361	-3102.03809	1973.19104	1023.34058	-3140.59058	2012.56384	1022.20129 
92	0.910	-1100.32751	515.77478	1660.02661	-985.89606	524.02380	1662.83020	-1098.88208	394.07468	1634.12427	-977.59900	399.82437	1636.36121	-1056.77527	326.00821	1436.49609	-1039.63513	289.00653	1140.67334	-1048.71423	467.54608	1364.85156	-1049.16125	510.39905	1211.82715	-974.59283	265.26697	1242.24438	-1211.42114	410.15778	1390.45288	-1297.40576	390.79736	1207.96948	-1302.53967	387.21866	1054.33728	-1314.43396	451.52997	955.77924	-1278.89917	551.94293	864.79822	-1308.38049	503.59915	845.80170	-1314.35596	566.57660	792.59015	-900.48584	398.49780	1398.74377	-795.20856	327.99081	1206.64966	-787.81830	325.25925	1078.53516	-767.84674	375.29340	963.43970	-801.66162	476.23868	869.20276	-761.61530	436.80258	856.83765	-767.70850	492.06067	792.84155	-1142.71741	468.17252	936.29053	-925.72540	462.60107	936.13245	-1092.66870	280.87314	948.50696	-947.32129	280.63525	947.27930	-1186.78149	450.73322	601.48657	-1166.18372	447.06339	466.99631	-1171.74768	383.07535	287.58005	-1120.54443	329.35049	77.28529	-1071.25012	277.83200	52.11152	-1117.52405	473.62299	36.10146	-856.56061	490.36954	610.96973	-873.11774	530.42224	458.40781	-874.29523	394.75818	347.08139	-925.33545	258.44321	193.65189	-981.31970	200.69861	189.89850	-918.26581	336.52631	73.89473	-1009.39203	518.91803	1697.93787	-3101.97388	1973.04187	1023.82825	-3140.59619	2012.60205	1022.15558 
93	0.920	-1099.10352	529.16467	1660.32019	-984.61298	537.05518	1662.75073	-1098.02649	407.27457	1635.15186	-976.80676	412.73703	1637.00854	-1056.64575	338.15598	1437.25684	-1039.69043	300.66043	1141.49426	-1048.29578	479.50189	1365.47327	-1048.87817	522.15802	1212.42383	-974.94946	277.08963	1242.92407	-1211.16528	422.50375	1391.53601	-1297.74500	404.72153	1209.21082	-1303.71069	404.44113	1055.38611	-1315.18042	472.21286	959.03796	-1279.15027	575.87659	871.98450	-1308.52527	528.26862	851.07391	-1314.37463	593.20093	800.39972	-900.30267	410.07846	1399.25208	-795.44623	338.53687	1207.33765	-788.23853	335.22394	1079.30273	-767.22070	382.04959	963.14893	-799.85443	480.32367	865.75500	-759.76239	440.54810	855.05023	-765.24713	493.91644	789.35175	-1142.66797	478.84619	936.72559	-926.16656	474.67734	937.41388	-1091.86401	292.19672	949.45801	-946.27332	292.71292	948.23730	-1186.56738	456.92535	601.61005	-1166.52673	450.73505	467.16177	-1171.41809	385.23734	288.18292	-1120.07764	329.79532	78.31278	-1070.40771	278.09436	53.28172	-1117.53076	473.62845	36.10720	-856.53992	508.64145	614.29620	-873.96228	551.02563	462.39780	-875.05420	420.89459	344.14285	-926.22192	292.74857	183.69867	-982.17816	235.51381	175.81381	-917.67371	378.82358	70.31765	-1008.02808	532.28827	1697.91125	-3101.99414	1973.11597	1023.38342	-3140.67065	2012.54968	1022.01312 
